PathFileType	3	(X/Y/Z)	F:\ViconData\AntennenMessung\Messung1\Session1\ID02.trc
DataRate	CameraRate	NumFrames	NumMarkers	Units	OrigDataRate	OrigDataStartFrame	OrigNumFrames
120.0	120.0	4	70	mm	120.0	809	924	
Frame#	Time	Ashort			Along			Atop			A4			Bshort			Blong			Btop			B4			Cshort			Clong			Ctop			C4			Dshort			Dlong			Dtop			D4			Eshort			Elong			Etop			E4			Fshort			Flong			Ftop			F4			Gshort			Glong			Gtop			G4			Hshort			Hlong			Htop			H4			I1			I2			I3			I4			I5			WandAshort			WandAlong			WandAtop			WandA4			WandA15			WandBshort			WandB4			WandB5			WandBtop			WandBlong			WandCshort			WandClong			WandCtop			WandC4			WandC5			Acenter			Aantenna			Bcenter			Bantenna			Ccenter			Cantenna			Dcenter			Dantenna			Ecenter			Eantenna			Fcenter			Fantenna			Gcenter			Gantenna			Hcenter			Hantenna			Icenter			Iantenna			
		X1	Y1	Z1	X2	Y2	Z2	X3	Y3	Z3	X4	Y4	Z4	X5	Y5	Z5	X6	Y6	Z6	X7	Y7	Z7	X8	Y8	Z8	X9	Y9	Z9	X10	Y10	Z10	X11	Y11	Z11	X12	Y12	Z12	X13	Y13	Z13	X14	Y14	Z14	X15	Y15	Z15	X16	Y16	Z16	X17	Y17	Z17	X18	Y18	Z18	X19	Y19	Z19	X20	Y20	Z20	X21	Y21	Z21	X22	Y22	Z22	X23	Y23	Z23	X24	Y24	Z24	X25	Y25	Z25	X26	Y26	Z26	X27	Y27	Z27	X28	Y28	Z28	X29	Y29	Z29	X30	Y30	Z30	X31	Y31	Z31	X32	Y32	Z32	X33	Y33	Z33	X34	Y34	Z34	X35	Y35	Z35	X36	Y36	Z36	X37	Y37	Z37	X38	Y38	Z38	X39	Y39	Z39	X40	Y40	Z40	X41	Y41	Z41	X42	Y42	Z42	X43	Y43	Z43	X44	Y44	Z44	X45	Y45	Z45	X46	Y46	Z46	X47	Y47	Z47	X48	Y48	Z48	X49	Y49	Z49	X50	Y50	Z50	X51	Y51	Z51	X52	Y52	Z52	X53	Y53	Z53	X54	Y54	Z54	X55	Y55	Z55	X56	Y56	Z56	X57	Y57	Z57	X58	Y58	Z58	X59	Y59	Z59	X60	Y60	Z60	X61	Y61	Z61	X62	Y62	Z62	X63	Y63	Z63	X64	Y64	Z64	X65	Y65	Z65	X66	Y66	Z66	X67	Y67	Z67	X68	Y68	Z68	X69	Y69	Z69	X70	Y70	Z70	
809	6.7333333	-1038.2498	214.40027	-1644.1962	-1109.3026	203.44215	-1599.5458	-1063.6733	172.72684	-1625.4132	-1054.0089	261.97409	-1634.9991	-1353.0281	234.82376	1003.9021	-1281.259	227.0885	1052.3171	-1323.0988	194.14516	1020.8055	-1284.6091	287.8714	1052.8127	813.87769	187.65503	1209.4496	892.28119	178.33125	1179.2458	844.38562	145.41978	1198.2281	860.50305	292.37436	1167.1787	1115.7341	209.47491	-1401.5723	1056.2557	194.17831	-1460.28	1094.993	162.1046	-1423.8053	1069.8676	238.67084	-1425.9563	-1204.5632	1686.0104	-1563.1615	-1129.0885	1688.2233	-1606.088	-1173.0931	1724.4025	-1582.0024	-1133.5319	1581.0691	-1603.4825	-1239.6927	1699.2289	1119.2494	-1309.4021	1698.8492	1071.7799	-1270.3254	1736.1384	1096.6423	-1244.6782	1593.7587	1106.5244	988.89789	1664.2833	1162.2777	957.46362	1700.3234	1183.6282	922.5705	1662.1002	1214.8153	939.79089	1659.3848	1159.8943	999.24567	1668.5544	-1579.4963	1058.9144	1670.1643	-1518.6154	1025.0826	1708.0228	-1551.1362	1059.3101	1672.1713	-1585.5409	-542.04675	1144.1066	-298.22205	-545.76282	1145.1667	-213.93471	-544.15521	1181.5438	-260.93066	-575.79706	1142.5549	-262.77869	-496.09424	1146.1825	-258.87939																																														-1069.0205	209.65463	-1624.8594	-1074.6089	248.24783	-1624.2806	-1321.8583	231.46426	1024.9291	-1320.5704	270.20721	1029.21	848.15875	183.57831	1196.2432	851.99133	222.33714	1194.2271	1088.8428	202.55904	-1428.115	1083.0133	240.90393	-1432.2001	-1171.859	1686.9691	-1581.7621	-1170.5739	1647.9911	-1581.512	-1271.0002	1699.0583	1097.9301	-1271.7096	1660.0881	1099.2833	953.04974	1705.3838	1186.6261	972.86926	1733.5295	1168.2959	1026.5935	1669.2922	-1551.5928	1028.1136	1630.3246	-1552.0522	-543.71222	1144.5817	-260.4462	-543.24475	1105.5879	-259.93512
810	6.7416667	-1038.2274	214.32806	-1644.2946	-1109.1842	203.18158	-1599.6085	-1063.6361	172.66725	-1625.4969	-1054.145	262.03113	-1634.9581	-1353.0306	234.78093	1003.9086	-1281.3344	227.07971	1052.3353	-1323.0353	194.13959	1020.8146	-1284.4886	287.9361	1052.7126	813.87982	187.68787	1209.4672	892.25287	178.53293	1179.2201	844.2998	145.56674	1198.1539	860.57581	292.36328	1167.2446	1115.7921	209.76422	-1401.7228	1056.2805	194.06987	-1460.1399	1094.9773	162.14566	-1423.8221	1069.8663	238.65416	-1425.9523	-1204.5692	1686.0194	-1563.1598	-1129.0903	1688.1893	-1606.0522	-1173.0867	1724.3934	-1582	-1133.52	1581.0533	-1603.4629	-1239.6821	1699.2233	1119.2531	-1309.5063	1699.0166	1071.8362	-1270.3319	1736.152	1096.6461	-1244.6135	1593.9581	1106.3921	988.87238	1664.2628	1162.2732	957.40967	1700.317	1183.5627	922.08234	1662.0988	1214.702	939.76703	1659.3784	1159.8922	999.25055	1668.5454	-1579.4937	1058.9139	1670.1638	-1518.6171	1025.077	1708.017	-1551.139	1059.3156	1672.1719	-1585.5389	-542.04504	1144.1132	-298.22833	-545.75629	1145.166	-213.92397	-544.16809	1181.5624	-260.92508	-575.79626	1142.4257	-262.78369	-496.03815	1146.1396	-258.54065																																														-1069.0383	209.48799	-1624.8907	-1074.6992	248.06976	-1624.2556	-1321.8403	231.43062	1024.976	-1320.599	270.17041	1029.299	848.03314	183.69833	1196.2861	851.8288	222.46669	1194.3871	1088.7074	202.62149	-1428.3092	1082.7731	240.93266	-1432.5563	-1171.8651	1686.9595	-1581.7445	-1170.5934	1647.9812	-1581.4785	-1271.0902	1699.1301	1097.9241	-1271.8884	1660.1616	1099.2694	952.86176	1705.5284	1186.6401	972.81024	1733.6759	1168.453	1026.593	1669.2871	-1551.5951	1028.1184	1630.3196	-1552.0541	-543.70837	1144.585	-260.44302	-543.22363	1105.5914	-259.93472
811	6.75	-1038.2499	214.37376	-1644.1963	-1109.2555	203.4102	-1599.5996	-1063.5662	172.66196	-1625.5299	-1054.006	261.93549	-1634.9751	-1353.0286	234.81993	1003.9199	-1281.3561	227.00006	1052.319	-1322.9677	194.21922	1020.777	-1284.496	287.90378	1052.6848	813.88989	187.63676	1209.4884	892.32404	178.47792	1179.2312	844.65491	145.21942	1198.2706	860.49231	292.36261	1167.2583	1115.7977	209.75908	-1401.7225	1056.3199	194.0802	-1460.1454	1095.0256	162.24281	-1423.9061	1069.8257	238.618	-1425.9757	-1204.483	1685.9395	-1563.3192	-1129.1161	1688.3412	-1606.5872	-1173.088	1724.3885	-1581.9883	-1133.5463	1581.0917	-1603.5273	-1239.688	1699.2325	1119.2487	-1309.4746	1698.9772	1071.8181	-1270.3251	1736.1375	1096.6405	-1244.601	1594.1202	1106.4409	988.90009	1664.2878	1162.2769	957.53448	1700.2787	1183.675	922.17554	1662.1166	1214.6796	939.80811	1659.3401	1159.8839	999.24933	1668.5629	-1579.5151	1058.9116	1670.1704	-1518.6162	1025.0773	1708.0052	-1551.1366	1059.3127	1672.1577	-1585.5559	-542.04858	1144.1083	-298.21844	-545.7724	1145.1808	-213.92627	-544.1745	1181.5563	-260.91757	-575.73798	1142.5051	-262.77051	-496.08365	1146.1907	-258.88062																																														-1068.9062	209.64026	-1624.9415	-1074.48	248.23506	-1624.3278	-1321.7772	231.41022	1025.0232	-1320.5376	270.13892	1029.4449	848.33911	183.61407	1196.199	852.05896	222.37988	1194.1072	1088.7186	202.62077	-1428.3213	1082.7347	240.9306	-1432.5105	-1171.9126	1686.9773	-1582.0177	-1170.6879	1647.9966	-1582.0483	-1271.0625	1699.1178	1097.9248	-1271.8387	1660.1488	1099.2769	952.96185	1705.5254	1186.7946	972.94611	1733.7031	1168.6936	1026.5952	1669.2996	-1551.6023	1028.1237	1630.3324	-1552.071	-543.71802	1144.5891	-260.42706	-543.23669	1105.5955	-259.90964
812	6.7583333	-1038.2714	214.39662	-1644.2544	-1109.2596	203.37953	-1599.5645	-1063.6888	172.70607	-1625.4241	-1054.0023	261.98059	-1635.0106	-1353.0347	234.84576	1003.8892	-1281.2788	227.12856	1052.3535	-1323.0271	194.16399	1020.8085	-1284.5315	287.87537	1052.7225	813.86237	187.68806	1209.384	892.18799	178.50191	1179.1996	844.34766	145.48454	1198.1448	860.57227	292.24606	1167.292	1115.7859	209.76363	-1401.7229	1056.299	194.0578	-1460.1367	1094.9478	162.09512	-1423.8755	1069.8523	238.66403	-1425.958	-1204.4912	1685.9496	-1563.3167	-1129.0919	1688.214	-1606.0873	-1173.0972	1724.3848	-1581.9939	-1133.5177	1581.038	-1603.4465	-1239.692	1699.2169	1119.2449	-1309.4076	1698.829	1071.7695	-1270.3278	1736.1356	1096.6345	-1244.7938	1593.5807	1106.5903	988.8775	1664.2716	1162.2739	957.54163	1700.2817	1183.6459	922.13513	1662.1437	1214.7103	939.79688	1659.3422	1159.8914	999.24207	1668.5569	-1579.5079	1058.9196	1670.1779	-1518.6191	1025.075	1708	-1551.1329	1059.3048	1672.1545	-1585.5522	-542.04797	1144.1108	-298.21439	-545.7666	1145.1742	-213.92932	-544.16223	1181.5607	-260.91776	-575.74329	1142.3621	-262.76587	-496.08643	1146.1803	-258.88458																																														-1069.0669	209.61726	-1624.8673	-1074.6892	248.20547	-1624.2854	-1321.8232	231.48903	1024.9695	-1320.5739	270.229	1029.2882	848.07678	183.67534	1196.1987	851.862	222.44092	1194.2234	1088.6581	202.60133	-1428.3613	1082.7097	240.9108	-1432.6039	-1171.8732	1686.9291	-1581.8195	-1170.5996	1647.9503	-1581.6377	-1270.9998	1699.0427	1097.9244	-1271.7058	1660.0725	1099.2799	952.9588	1705.5481	1186.7714	972.95367	1733.7037	1168.6478	1026.5986	1669.2998	-1551.5961	1028.1328	1630.3329	-1552.0624	-543.7149	1144.5874	-260.43155	-543.24323	1105.5935	-259.91882
